<svg xmlns="http://www.w3.org/2000/svg" viewBox="0 0 251.8 63.9"><g fill="#FAA523"><path d="M120.7 56.8v.3c0 .2.1.3.4.3.5 0 1.8-.6 2.5-.9l1.3-6 2.9-.4-2.1 9.8h-2.4V59c-1.5.7-2.7 1.1-3.8 1.1-1.3 0-1.7-.7-1.7-2 0-.4.1-.7.1-1.1l1.4-6.5 2.9-.4-1.5 6.7zM127.8 59.4l.6-2.1c.7.3 1.5.5 2.6.5.9 0 1-.3 1.1-.7s-.2-.7-1.2-1.2c-2-1.1-2-1.8-1.7-3.2.4-2.1 1.1-2.6 3.7-2.6.9 0 2.1.2 2.8.5l-.5 2.1c-.7-.2-1.7-.4-2.4-.4-.8 0-1 .1-1.1.6s0 .6.9 1c2.2 1.2 2.5 1.6 2.2 3.1-.5 2.2-1.1 3-4 3-.9.1-2.2-.2-3-.6zM136.8 53.7c.5-2.2 1.5-3.6 4.5-3.6 1.8 0 3.2.8 3.1 2.4-.1 1.9-1.1 2.7-3.5 3.5-1.2.4-1.2.4-2 .6l-.1.7c-.1.4 0 .7.5.7 1 0 2.5-.5 3.8-1.1l.5 2c-1.2.7-3 1.3-4.7 1.3-2 0-2.8-.9-2.8-2.5 0-.4.1-.7.2-1.2l.5-2.8zm5.1-.9c0-.3-.3-.6-.8-.6-1 0-1.3.6-1.5 1.4l-.1.7c.5-.1.7-.2 1.3-.3.7-.3 1-.7 1.1-1.2zM151.6 52.6c-1.2.7-1.7.9-2.8 1.6l-1.2 5.7h-2.8l2-9.4 2.5-.4-.1 1.3c.9-.6 1.7-.9 2.6-1.3l-.2 2.5zM157.2 50.5l2.9-.4-2.1 9.8h-2.8l2-9.4zm.9-4.3l2.9-.4-.6 3-2.9.4.6-3zM167.3 53.3V53c0-.2-.1-.3-.4-.3-.5 0-1.8.5-2.5.9l-1.3 6.2h-2.8l2-9.4 2.5-.4-.1 1.1c1.5-.7 2.7-1.1 3.8-1.1 1.3 0 1.7.7 1.7 2 0 .3 0 .6-.1 1.1l-1.4 6.7H166l1.3-6.5zM175.9 52.5l-1 4.8v.3c0 .1.1.2.3.2.5 0 1-.2 1.5-.4l.5 1.9c-.8.4-2 .8-3.1.8-1.4 0-2.1-.7-2.1-1.8 0-.1 0-.3.1-.4l1.1-5.3h-1.4l.5-2.2h1.4l.5-2.3 2.9-.4-.6 2.7h2.3l-.6 2.2h-2.3zM179.2 53.7c.5-2.2 1.5-3.6 4.5-3.6 1.8 0 3.2.8 3.1 2.4-.1 1.9-1.1 2.7-3.5 3.5-1.2.4-1.2.4-2 .6l-.1.7c-.1.4 0 .7.5.7 1 0 2.5-.5 3.8-1.1l.5 2c-1.2.7-3 1.3-4.7 1.3-2 0-2.8-.9-2.8-2.5 0-.4.1-.7.2-1.2l.5-2.8zm5-.9c0-.3-.3-.6-.8-.6-1 0-1.3.6-1.5 1.4l-.1.7c.5-.1.7-.2 1.3-.3.8-.3 1.1-.7 1.1-1.2zM194 52.6c-1.2.7-1.7.9-2.8 1.6l-1.2 5.7h-2.8l2-9.4 2.5-.4-.1 1.3c.9-.6 1.7-.9 2.6-1.3l-.2 2.5zM192.8 62.3c1-1 1.2-1.5 1.3-2.4l1.6-7.3h-1.4l.5-2.3h1.4l.3-1.3c.5-2.1 1.3-3.1 3.6-3.1.8 0 1.7.1 2.5.4l-.6 2.2c-.4-.2-1.2-.3-1.6-.3-.6 0-.8.2-.9.7l-.3 1.4h2.5l-.7 2.3h-2.3l-1.6 7.6c-.3 1.3-.8 2.3-2.3 3.8l-2-1.7zM206 59.9v-.8c-.7.5-1.7 1-3.1 1-2.1 0-2.5-1.3-2-3.4l.5-2.6c.5-2.3 1.4-4 5.2-4 1 0 2.3.2 3.6.6l-1.9 9.2H206zm-2.5-3c-.1.5 0 .7.5.7.7 0 1.5-.4 2.1-.9l.9-4.2c-.4-.1-.8-.1-1.1-.1-1.4 0-1.6.7-1.9 1.6l-.5 2.9zM210.9 57.6c0-.5.1-.9.2-1.5l.6-2.7c.6-2.7 2-3.4 4.7-3.4.8 0 1.7.2 2.2.4l-.8 2.2c-.5-.2-1-.3-1.6-.3-1.3 0-1.7.4-1.9 1.5l-.6 2.9c0 .1 0 .3-.1.4 0 .3.1.5.5.5.7 0 2-.4 2.7-.6l.2 2.2c-.8.4-2.2.7-3.2.7-2.1.2-3-.6-2.9-2.3zM219.5 53.7c.5-2.2 1.5-3.6 4.5-3.6 1.8 0 3.2.8 3.1 2.4-.1 1.9-1.1 2.7-3.5 3.5-1.2.4-1.2.4-2 .6l-.1.7c-.1.4 0 .7.5.7 1 0 2.5-.5 3.8-1.1l.5 2c-1.2.7-3 1.3-4.7 1.3-2 0-2.8-.9-2.8-2.5 0-.4.1-.7.2-1.2l.5-2.8zm5.1-.9c0-.3-.3-.6-.8-.6-1 0-1.3.6-1.5 1.4l-.1.7c.5-.1.7-.2 1.3-.3.7-.3 1-.7 1.1-1.2z"/></g><path fill="#FAA523" fill-rule="evenodd" d="M47.5 2.4H6.1C2.8 2.4 0 5.3 0 8.6v14.5c0 14.6 12.4 26.4 27.1 26.4s27.1-11.8 27.1-26.4V8.6c0-3.3-3.4-6.2-6.7-6.2" clip-rule="evenodd"/><path fill="#fff" fill-rule="evenodd" d="M9.3 23.5C9.3 33.2 17.1 41 27 41c9.8 0 17.7-7.9 17.7-17.7h-8.9c0 4.9-3.6 8.9-8.6 8.9-4.9 0-8.6-3.8-8.6-8.7V15H9.3v8.5z" clip-rule="evenodd"/><path fill="#fff" fill-rule="evenodd" d="M9.3 23.3c0 9.7 7.8 17.6 17.7 17.6 9.8 0 17.7-7.8 17.7-17.6h-8.9c0 4.9-3.6 8.8-8.6 8.8-4.9 0-8.6-3.9-8.6-8.8V15H9.3v8.3zM37.9 9.6l-2 8.5 8.6 2.2 2.2-8.5z" clip-rule="evenodd"/><path fill="#333" d="M224.7 14.8l.3 1.3c.1.4-.2.7-.5.7M199.1 12.5c-.1.4-.2.8-.2 1.2l-2.8 13.1 3-13.8v-.5zM115.1 21.3l-1.6 5.5z"/><path fill="#333" d="M225 16.2l-.8-3.4c-.6-2.5-2.4-3.6-6.5-3.6h-17.1c-.4 0-.8.2-.9.6l-6.5 30.7c-.1.4-.1.7-.1.9s.8.2 1.2.2h5.9c.4 0 1.1 0 1.3-.1s.3-.7.4-1.1l2.1-10.8 2.6-12c.1-.4.5-.7.9-.7h16.9c.5 0 .7-.3.6-.7"/><path fill="#333" d="M249.1 3.7h-7.5c-.4 0-.9.4-1.1.7l-13.2 19.4c-.2.3-.5.3-.6-.1l-1-4.2c-.1-.4-.5-.7-.9-.7h-8.5c-.4 0-.6.3-.5.7l3.8 13.3c.1.4.1 1 0 1.4l-1.8 6.7c-.1.4.1.5.5.5h8.4c.4 0 .8-.1.9-.5l1.8-6.8c.1-.4.4-.9.6-1.2l21.5-28.5c.2-.3.2-.7-.2-.7h-2.2zM160.9 9.1h-7.6c-.4 0-.8.1-.9.5l-2.5 11.8-2.5 11.3c-.1.4-.5.4-.9.4h-5c-5 0-4.4-3.1-3.4-7.8l3.2-15.6c.1-.4-.2-.5-.6-.5h-7.3c-.4 0-.8.1-.9.5l-2.9 15.6c-1.5 8.5-1.5 15.9 8.3 16.1h15.5c.4 0 .8-.1.9-.5l3.3-15.7L161 9.5s.1-.4-.1-.4zM84.8 9.1h-8.2c-.4 0-.8.1-.9.5L74.3 16c-.1.4.2.7.6.7h7.8c.4 0 .8-.4.9-.7L85 9.5s.1-.4-.2-.4zM74.3 18.8c-.4 0-.8.3-.9.7l-1.1 4.9-2.5 11.3s-1.3 6-1.4 6.4c0 0-1.1 4.3-3.7 4.2-1.2-.1-2.6-.4-2.6-.4-.7-.2-.8.5-.9.9l-1.6 7c-.1.4.2.7.5.7 0 0 3.5.5 6 .5h.4c6.2 0 9.4-3.6 11.5-13.4l2.4-11.4 2.3-10.6c.1-.4-.1-.7-.5-.7M180.3 9.1c-13.8 0-17.1 8.5-18.9 17-1.8 8.6-1.7 15.4 12.6 15.4h13c.4 0 .8-.4.8-.7l1.4-5.5c.1-.4-.2-.5-.6-.5h-12.8c-4.6 0-6.3-1.4-6.1-4.6 0-.4.4-1.3.8-1.3h19.8c.9 0 .9-.5.9-.5 2-9.2 2.1-19.3-10.9-19.3m3.6 13.5c0 .4-1.3.3-1.3.3l-10.7-.1c-.4 0-.5-.5-.5-.9 0 0 0-.4.1-.6.8-2.9 3.3-4.5 7.2-4.5 4.4 0 5.4 2.2 5.4 4.6M120.7 32.6s3.9-9.4 4.7-14.8C126.7 10.5 123 0 109 0 95.1 0 89 10 86.7 21s.7 20.6 14.6 20.5h21.2c.4 0 .8-.3.9-.7l1.8-6.8c.1-.4-.1-.7-.5-.7h-3.4c-.3 0-.5-.2-.5-.5-.1-.1-.1-.2-.1-.2m-7.3-5.8l-1.6 5.4c-.1.4-.6.6-1 .6h-8.2c-6.2 0-7.7-4.8-6.2-12C98 13.6 101 9 107.1 8.6c8.4-.6 10.1 5.3 8 12.1l-1.7 6.1z"/></svg>